<svg id="Layer_2" data-name="Layer 2" xmlns="http://www.w3.org/2000/svg" viewBox="0 0 500 200">
    <defs>
        <style>.cls-1{fill:#231f20;}</style>
    </defs>
    <path class="cls-1"
        d="M495,114.68l-10.92-9.23-9.22-24.36a15.48,15.48,0,0,0-13.22-9.94L321.38,59.82C264.83,23.47,272.24-2.59,181.66,19.33A301.33,301.33,0,0,0,146,30.41,63.72,63.72,0,1,1,35.56,93.84c-3.73,2.92-6.77,5.37-9,7.23A12.35,12.35,0,0,0,22.08,112l.75,6.72a6.71,6.71,0,0,1-.93,4.22L11.54,140c-1.73,12.12,11.54,16.16,11.54,16.16H86c0,.37,0,.75,0,1.13a42.7,42.7,0,0,0,85.39,0c0-.38,0-.76,0-1.13H355.45c0,.37,0,.75,0,1.13a42.7,42.7,0,0,0,85.39,0c0-.38,0-.76,0-1.13h35.68a17.16,17.16,0,0,0,15.64-10.12l6.65-14.79A14.13,14.13,0,0,0,495,114.68Z" />
    <path class="cls-1"
        d="M56,76.21H79.2V99.42a12.5,12.5,0,0,0,25,0V76.21h23.22a12.5,12.5,0,0,0,0-25H104.2V28a12.5,12.5,0,0,0-25,0V51.21H56a12.5,12.5,0,0,0,0,25Z" />
</svg>