<?xml version="1.0" encoding="utf-8"?>
<!-- Generator: Adobe Illustrator 26.0.1, SVG Export Plug-In . SVG Version: 6.00 Build 0)  -->
<svg version="1.1" id="Layer_1" xmlns="http://www.w3.org/2000/svg" xmlns:xlink="http://www.w3.org/1999/xlink" x="0px" y="0px"
	 viewBox="0 0 500 380" style="enable-background:new 0 0 500 380;" xml:space="preserve">
<style type="text/css">
	.st0{clip-path:url(#SVGID_00000086693295539064449930000006475376333212544933_);}
	.st1{fill:url(#SVGID_00000160871114262053280730000018142285813298805661_);}
	.st2{clip-path:url(#SVGID_00000153671785537700252910000018209430125817637767_);}
	.st3{fill:url(#SVGID_00000022526701691662155860000012195108437408613517_);}
	.st4{clip-path:url(#SVGID_00000181794157853974724220000003189774476293843857_);}
	.st5{fill:url(#SVGID_00000034803023452122652410000005868502175932985221_);}
</style>
<g>
	<g>
		<defs>
			<path id="SVGID_1_" d="M45.6,24.2L9.7,62.1C9.5,72.7,9.3,83.3,9.1,93.8v70.7l95.3,95.3v46.2H50.2V258H0v61.6L36.5,356h86.7
				l33.6-33.6v-87.3l-94.9-94.9V85.8L49.7,73.7h60.9v55.4h49V53.9l-29.7-29.6H45.6z"/>
		</defs>
		<clipPath id="SVGID_00000063598422061670502550000015117592116854999980_">
			<use xlink:href="#SVGID_1_"  style="overflow:visible;"/>
		</clipPath>
		<g style="clip-path:url(#SVGID_00000063598422061670502550000015117592116854999980_);">
			
				<linearGradient id="SVGID_00000006672383950231651430000018316894543539270535_" gradientUnits="userSpaceOnUse" x1="-343.7209" y1="-169.4359" x2="-342.9384" y2="-169.4359" gradientTransform="matrix(204.62 0 0 204.62 70330.9688 34860.1133)">
				<stop  offset="0" style="stop-color:#F3C12F"/>
				<stop  offset="0" style="stop-color:#ECC33E"/>
				<stop  offset="0.32" style="stop-color:#FDF067"/>
				<stop  offset="0.68" style="stop-color:#DBAB26"/>
				<stop  offset="1" style="stop-color:#FCEE44"/>
			</linearGradient>
			<rect y="24.2" style="fill:url(#SVGID_00000006672383950231651430000018316894543539270535_);" width="159.6" height="331.8"/>
		</g>
	</g>
	<g>
		<defs>
			<polygon id="SVGID_00000101100621935403308680000004665381735854080384_" points="386,24.2 350.1,62.1 349.5,93.8 349.5,164.5 
				444.7,259.7 444.7,305.9 390.5,305.9 390.5,258 340.4,258 340.4,319.6 376.9,356 463.5,356 497.2,322.5 497.2,235.2 402.2,140.2 
				402.2,85.8 390.1,73.7 451,73.7 451,129.1 500,129.1 500,53.9 470.3,24.2 			"/>
		</defs>
		<clipPath id="SVGID_00000037675637206726008750000017823939294883442058_">
			<use xlink:href="#SVGID_00000101100621935403308680000004665381735854080384_"  style="overflow:visible;"/>
		</clipPath>
		<g style="clip-path:url(#SVGID_00000037675637206726008750000017823939294883442058_);">
			
				<linearGradient id="SVGID_00000052062749605350719250000017252800967214106286_" gradientUnits="userSpaceOnUse" x1="-343.5775" y1="-170.5537" x2="-342.7951" y2="-170.5537" gradientTransform="matrix(-210.4673 -6.5774 6.5774 -210.4673 -70653.5391 -37962.0664)">
				<stop  offset="0" style="stop-color:#F3C12F"/>
				<stop  offset="0" style="stop-color:#ECC33E"/>
				<stop  offset="0.32" style="stop-color:#FDF067"/>
				<stop  offset="0.68" style="stop-color:#DBAB26"/>
				<stop  offset="1" style="stop-color:#FCEE44"/>
			</linearGradient>
			<polygon style="fill:url(#SVGID_00000052062749605350719250000017252800967214106286_);" points="330,355.7 340.5,19.2 
				510.4,24.5 499.8,361 			"/>
		</g>
	</g>
	<g>
		<defs>
			<path id="SVGID_00000050632058735303320750000002706455886647063206_" d="M224.1,24l-42,47.8v247.4l37.2,36.7h102.3v-48.5h-82.1
				c-0.3-73.3-0.6-146.5-0.9-219.8l-14.6-10.7l97.5-1.4V24H224.1z"/>
		</defs>
		<clipPath id="SVGID_00000021087931978102790960000006531072517699928708_">
			<use xlink:href="#SVGID_00000050632058735303320750000002706455886647063206_"  style="overflow:visible;"/>
		</clipPath>
		<g style="clip-path:url(#SVGID_00000021087931978102790960000006531072517699928708_);">
			
				<linearGradient id="SVGID_00000072264229425790596030000005625924035970633377_" gradientUnits="userSpaceOnUse" x1="-343.9622" y1="-169.3437" x2="-343.1797" y2="-169.3437" gradientTransform="matrix(178.68 0 0 178.68 61640.1016 30448.2637)">
				<stop  offset="0" style="stop-color:#F3C12F"/>
				<stop  offset="0" style="stop-color:#ECC33E"/>
				<stop  offset="0.32" style="stop-color:#FDF067"/>
				<stop  offset="0.68" style="stop-color:#DBAB26"/>
				<stop  offset="1" style="stop-color:#FCEE44"/>
			</linearGradient>
			
				<rect x="182.2" y="24" style="fill:url(#SVGID_00000072264229425790596030000005625924035970633377_);" width="139.4" height="332"/>
		</g>
	</g>
</g>
</svg>
